/* XPM */
static char *font_white[] = {
/* columns rows colors chars-per-pixel */
"256 36 2 1 ",
"  c black",
". c white",
/* pixels */
"                                                                                                                                                                                                                                                                ",
"                  .. ..                                    ..        .    .                                                                                                                                                                                     ",
"           ..      .  .   .   .     .    ..    .  ..        .       .      .       .                                           .  ....      .     ....    ....       .   ......    ...   ......   ....    ....                       .            .       ....  ",
"           ..     .  .    .   .   ......      .  .  .      .       .        .    . . .      .                                 .  .    .    ..    .    .  .    .     ..   .        .           .  .    .  .    .                     .              .     ..  .. ",
"           ..            ....... .  .        .   .  .             .          .    ...       .                                .   .    .     .        .        .    . .   .....   .           .   .    .  .    .    ..      ..      .     .......    .       ..  ",
"           ..             .   .   .....     .     ..              .          .  .......  .......         .......            .    . .. .     .       .       ..    .  .        .  .....      .     ....    .....                   .                  .     ..   ",
"           ..            .......    .  .   .     .  . .           .          .    ...       .                              .     .    .     .      .          .  ......       .  .    .    .     .    .       .                    .     .......    .      ..   ",
"                          .   .  ......   .      .   .             .        .    . . .      .                             .      .    .     .     .      .    .      .   .    .  .    .   .      .    .      .                      .              .            ",
"           ..             .   .     .    .    ..  ... .             .      .       .               ..              ..    .        ....      .    ......   ....       .    ....    ....   .        ....    ...      ..      ..        .            .        ..   ",
"                                                                     .    .                         .                                                                                                                       .                                   ",
"                                                                                                   .                                                                                                                       .                                    ",
"                                                                                                                                                                                                                                                                ",
"                                                                                                                                                                                                                                                                ",
"                                                                                                                                                                                                                           ...             ...                  ",
"  ....      .    .....     ...   ....    ......  ......    ...   .    .   ...         .  .    .   .      .     . .    .   ....   .....    ....   .....    ....   ....... .    .  .   .  .     .  .   .   .   .   ......    .     .           .      .           ",
" .    .    . .   .    .   .   .  .   .   .       .        .      .    .    .          .  .   .    .      ..   .. ..   .  .    .  .    .  .    .  .    .  .    .     .    .    .  .   .  .     .  .   .   .   .       .     .      .          .     . .          ",
" .  . .   .   .  .    .  .       .    .  .       .       .       .    .    .          .  .  .     .      . . . . . .  .  .    .  .    .  .    .  .    .  .          .    .    .  .   .  .     .   . .    .   .      .      .       .         .    .   .         ",
" . . ..  .     . .....   .       .    .  ....    ....    .  ...  ......    .          .  . .      .      .  .  . .  . .  .    .  .....   .    .  .....    ....      .    .    .   . .   .     .    .      . .      .       .        .        .                  ",
" .  ..   ....... .    .  .       .    .  .       .       .    .  .    .    .     .    .  .. .     .      .     . .   ..  .    .  .       .  . .  .  .         .     .    .    .   . .   .  .  .   . .      .      .        .         .       .                  ",
" .       .     . .    .   .   .  .   .   .       .        .   .  .    .    .     .    .  .   .    .      .     . .    .  .    .  .       .   .   .   .   .    .     .    .    .    .    . . . .  .   .     .     .         .          .      .                  ",
"  ...    .     . .....     ...   ....    ......  .         ...   .    .   ...     ....   .    .   .....  .     . .    .   ....   .        ... .  .    .   ....      .     ....     .     .   .   .   .     .     ......    .           .     .                  ",
"                                                                                                                                                                                                                           ...             ...          ........",
"                                                                                                                                                                                                                                                                ",
"                                                                                                                                                                                                                                                                ",
"                                                                                                                                                                                                                                                                ",
"    ..                                                                                                                                                                                                                       ..     .     ..                    ",
"    .            .                    .            ..             .        .         .    .        ..                                                               .                                                       .       .       .     .      . . .  ",
"     .           .                    .           .  .            .                       .         .                                                               .                                                       .       .       .    . . .  . . . . ",
"          ....   .....    ....    .....   ....    .       ....    . ..    ..        ..    .  .      .    ... ..  . ...    ....   .....    .....  . ...    .....   .....  .    .  .   .  .     .  .   .   .   .   .....      .       .       .       .    . . .  ",
"              .  .    .  .    .  .    .  .    .  ...     .   .    ..  .    .         .    . .       .    .  .  . ..   .  .    .  .    .  .    .  ..   .  .          .    .    .  .   .  .     .   . .    .   .      .     ..                 ..         . . . . ",
"          .....  .    .  .       .    .  ......   .      .   .    .   .    .         .    ..        .    .  .  . .    .  .    .  .    .  .    .  .        ....      .    .    .   . .    . . .     .     .   .     .        .       .       .            . . .  ",
"         .    .  .    .  .    .  .    .  .        .      .   .    .   .    .         .    . .       .    .  .  . .    .  .    .  .    .  .    .  .            .     . .  .   ..   . .    . . .    . .    .   .    .         .       .       .           . . . . ",
"          .....  .....    ....    .....   ....    .       ....    .   .   ...        .    .  .      .    .  .  . .    .   ....   .....    .....  .       .....       .    ... .    .      . .    .   .    ....   .....      .       .       .            . . .  ",
"                                                             .                    .  .                                           .            .                                                              .               ..     .     ..                    ",
"                                                          ...                      ..                                            .            .                                                           ...                                                   ",
"                                                                                                                                                                                                                                                                "
};
